<svg width="16mm" height="16.009mm" version="1.1" viewBox="0 0 16 16.009" xmlns="http://www.w3.org/2000/svg">
 <g transform="translate(-25.449 -39.33)">
  <g>
   <rect x="26.234" y="46.81" width="14.429" height="1.05" style="paint-order:fill markers stroke"/>
   <rect transform="rotate(-90)" x="-54.549" y="32.924" width="14.429" height="1.05" style="paint-order:fill markers stroke"/>
   <path transform="matrix(.3403 .06246 -.06246 .3403 64.505 64.974)" d="m-88.654-20.771-11.901 2.3926-10.107-6.7237-2.3926-11.901 6.7237-10.107 11.901-2.3926 10.107 6.7237 2.3926 11.901z" style="paint-order:fill markers stroke"/>
   <path d="m28.697 42.002a0.58465 0.60804 0 0 0-0.58446 0.60823 0.58465 0.60804 0 0 0 0.58446 0.60823 0.58465 0.60804 0 0 0 0.22479-0.04754l1.4258 1.6304 0.30127-0.26303-1.4361-1.6423a0.58465 0.60804 0 0 0 0.06925-0.28577 0.58465 0.60804 0 0 0-0.58498-0.60823z" style="paint-order:fill markers stroke"/>
   <path d="m38.285 52.685a0.58465 0.60804 0 0 0 0.58446-0.60823 0.58465 0.60804 0 0 0-0.58446-0.60823 0.58465 0.60804 0 0 0-0.22479 0.04754l-1.4258-1.6304-0.30127 0.26303 1.4361 1.6423a0.58465 0.60804 0 0 0-0.06925 0.28577 0.58465 0.60804 0 0 0 0.58498 0.60823z" style="paint-order:fill markers stroke"/>
   <path d="m28.344 42.23c2.261 2.2156 2.2668 2.2214 2.2668 2.2214" style="paint-order:fill markers stroke"/>
   <path d="m38.946 42.604a0.58465 0.60804 82.663 0 0-0.67789-0.502 0.58465 0.60804 82.663 0 0-0.52861 0.65735 0.58465 0.60804 82.663 0 0 0.07586 0.21688l-1.435 1.6223 0.29936 0.26521 1.4454-1.6341a0.58465 0.60804 82.663 0 0 0.29228 0.03214 0.58465 0.60804 82.663 0 0 0.52854-0.65786z" style="paint-order:fill markers stroke"/>
   <path d="m28.127 52.162a0.58465 0.60804 86.164 0 0 0.64597 0.54246 0.58465 0.60804 86.164 0 0 0.56777-0.62384 0.58465 0.60804 86.164 0 0-0.06247-0.22111l1.5314-1.5316-0.2826-0.283-1.5425 1.5427a0.58465 0.60804 86.164 0 0-0.28976-0.04997 0.58465 0.60804 86.164 0 0-0.56773 0.62436z" style="paint-order:fill markers stroke"/>
  </g>
  <rect x="30.218" y="44.066" width="1.9678" height="2.0671" fill="#fff" style="paint-order:fill markers stroke"/>
 </g>
</svg>
