<?xml version="1.0" encoding="UTF-8" standalone="no"?>
<svg width="16mm" height="16.009mm" version="1.1" viewBox="0 0 16 16.009" xmlns="http://www.w3.org/2000/svg">
  <g
     transform="translate(-25.449 -39.33)"
     id="g22">
    <g
       id="g18">
      <rect
         x="26.234"
         y="46.81"
         width="14.429"
         height="1.05"
         style="paint-order:fill markers stroke"
         id="rect2" />
      <rect
         transform="rotate(-90)"
         x="-54.549"
         y="32.924"
         width="14.429"
         height="1.05"
         style="paint-order:fill markers stroke"
         id="rect4" />
      <path
         transform="matrix(.3403 .06246 -.06246 .3403 64.505 64.974)"
         d="m-88.654-20.771-11.901 2.3926-10.107-6.7237-2.3926-11.901 6.7237-10.107 11.901-2.3926 10.107 6.7237 2.3926 11.901z"
         style="paint-order:fill markers stroke"
         id="path6" />
      <path
         d="m28.697 42.002a0.58465 0.60804 0 0 0-0.58446 0.60823 0.58465 0.60804 0 0 0 0.58446 0.60823 0.58465 0.60804 0 0 0 0.22479-0.04754l1.4258 1.6304 0.30127-0.26303-1.4361-1.6423a0.58465 0.60804 0 0 0 0.06925-0.28577 0.58465 0.60804 0 0 0-0.58498-0.60823z"
         style="paint-order:fill markers stroke"
         id="path8" />
      <path
         d="m38.285 52.685a0.58465 0.60804 0 0 0 0.58446-0.60823 0.58465 0.60804 0 0 0-0.58446-0.60823 0.58465 0.60804 0 0 0-0.22479 0.04754l-1.4258-1.6304-0.30127 0.26303 1.4361 1.6423a0.58465 0.60804 0 0 0-0.06925 0.28577 0.58465 0.60804 0 0 0 0.58498 0.60823z"
         style="paint-order:fill markers stroke"
         id="path10" />
      <path
         d="m 27.143715,42.23 c 3.458214,2.2156 3.467085,2.2214 3.467085,2.2214"
         style="stroke-width:1.23674;paint-order:fill markers stroke"
         id="path12" />
      <path
         d="m38.946 42.604a0.58465 0.60804 82.663 0 0-0.67789-0.502 0.58465 0.60804 82.663 0 0-0.52861 0.65735 0.58465 0.60804 82.663 0 0 0.07586 0.21688l-1.435 1.6223 0.29936 0.26521 1.4454-1.6341a0.58465 0.60804 82.663 0 0 0.29228 0.03214 0.58465 0.60804 82.663 0 0 0.52854-0.65786z"
         style="paint-order:fill markers stroke"
         id="path14" />
      <path
         d="m28.127 52.162a0.58465 0.60804 86.164 0 0 0.64597 0.54246 0.58465 0.60804 86.164 0 0 0.56777-0.62384 0.58465 0.60804 86.164 0 0-0.06247-0.22111l1.5314-1.5316-0.2826-0.283-1.5425 1.5427a0.58465 0.60804 86.164 0 0-0.28976-0.04997 0.58465 0.60804 86.164 0 0-0.56773 0.62436z"
         style="paint-order:fill markers stroke"
         id="path16" />
    </g>
    <rect
       x="30.218"
       y="44.066"
       width="1.9678"
       height="2.0671"
       fill="#fff"
       style="paint-order:fill markers stroke"
       id="rect20" />
  </g>
  <path
     style="fill:#ff0000;stroke-width:0.264583"
     d="M 2.5096875,2.5096875 C 13.530489,13.514901 13.530489,13.514901 13.530489,13.514901 v 0"
     id="path425" />
  <path
     style="fill:#ff0000;stroke-width:0.264583"
     d="m 13.499313,13.530489 c 0,0 0,0 -10.9584492,-11.0208015 z"
     id="path427" />
  <rect
     style="fill:#ff0000;stroke-width:0.0975764"
     id="rect507"
     width="1.0884098"
     height="15.120248"
     x="-0.58949298"
     y="3.9909067"
     ry="0"
     transform="matrix(0.74236234,-0.66999862,0.71191915,0.70226143,0,0)" />
  <path
     style="fill:#f2f2f2;stroke-width:0.264583"
     d="m 3.2267411,-3.3358579 c 4.2711451,0.2805861 4.2711451,0.2805861 4.2711451,0.2805861"
     id="path1297" />
  <path
     style="fill:#f2f2f2;stroke-width:0.264583"
     d="M 2.6499806,2.6811568 13.655194,13.670782"
     id="path2025" />
  <path
     style="fill:#f2f2f2;stroke-width:0.264583"
     d="M 23.351006,8.4799381 20.389263,1.1067566"
     id="path2027" />
  <path
     style="fill:#f2f2f2;stroke-width:0.264583"
     d="m 17.910751,-0.17146933 1.605577,5.31554923 v 0"
     id="path2029" />
  <path
     style="fill:#f2f2f2;stroke-width:0.264583"
     d="m 15.884296,-2.3226301 3.990559,6.6717159"
     id="path2031" />
  <rect
     style="fill:#ff0000;stroke-width:0.0975764"
     id="rect507-1"
     width="1.0884098"
     height="15.120248"
     x="-12.02599"
     y="-6.7488518"
     ry="0"
     transform="matrix(-0.6568328,-0.75403626,0.71467916,-0.69945243,0,0)" />
</svg>
