<svg width="16mm" height="16.009mm" version="1.1" viewBox="0 0 16 16.009" xmlns="http://www.w3.org/2000/svg">
 <g transform="translate(-25.449 -39.33)">
  <g stroke-width=".2645">
   <rect x="25.449" y="39.33" width="16" height="15.991" fill="#bdbdbd"/>
   <rect x="25.449" y="39.33" width="2" height="15.991" fill="#fff"/>
   <rect x="39.449" y="39.339" width="2" height="15.991" fill="#868686"/>
   <path d="m25.449 39.33v1.9987h14l1.9999-1.9889v-0.0098z" fill="#fff"/>
   <path d="m27.449 53.322-1.9999 1.9987h16v-1.9987z" fill="#868686"/>
  </g>
  <g fill="#fff">
   <g stroke-width=".2645">
    <path d="m27.456 55.318 0.0096-1.9511"/>
    <path d="m27.462 53.3-0.0032 2.0181"/>
    <path d="m25.449 55.321 2.0001-1.9988"/>
    <path d="m25.449 53.322 1.16e-4 1.9987"/>
   </g>
   <path class="UnoptimicedTransforms" d="m0 0"/>
   <path class="UnoptimicedTransforms" d="m0 0"/>
  </g>
  <g>
   <path d="m36.036 41.858-6.0002 2.9998 6.0002 2.9998z" fill="#ee2f2f" style="paint-order:fill markers stroke"/>
   <path d="m54.838 49.62-6-3" fill="#868686" style="paint-order:fill markers stroke"/>
   <path d="m48.838 49.62h6" fill="#868686" style="paint-order:fill markers stroke"/>
  </g>
  <g>
   <path class="UnoptimicedTransforms" d="m0 0"/>
   <g>
    <path d="m48.838 46.62h6" style="paint-order:fill markers stroke"/>
    <rect x="34.522" y="47.086" width="1.5137" height="2.7997" style="paint-order:fill markers stroke"/>
    <rect x="33.097" y="49.886" width="3.2494" height=".40784" style="paint-order:fill markers stroke"/>
    <rect x="28.053" y="50.294" width="10.476" height="2.712" style="paint-order:fill markers stroke"/>
   </g>
  </g>
 </g>
</svg>
