<svg
   width="16mm"
   height="16.009mm"
   version="1.1"
   viewBox="0 0 16 16.009"
   xmlns="http://www.w3.org/2000/svg">
  <g
     transform="translate(-25.449 -39.33)"
     id="g50">
    <rect
       style="display:inline;fill:#ff0000;stroke-width:0.264951"
       id="rect460"
       width="16"
       height="16"
       x="25.448999"
       y="39.330002" />
    <g
       id="g46"
       style="display:inline">
      <rect
         x="26.233999"
         y="46.810001"
         width="14.429"
         height="1.05"
         style="paint-order:fill markers stroke"
         id="rect30" />
      <rect
         transform="rotate(-90)"
         x="-54.549"
         y="32.924"
         width="14.429"
         height="1.05"
         style="paint-order:fill markers stroke"
         id="rect32" />
      <path
         transform="matrix(0.3403,0.06246,-0.06246,0.3403,64.505,64.974)"
         d="m -88.654,-20.771 -11.901,2.3926 -10.107,-6.7237 -2.3926,-11.901 6.7237,-10.107 11.901,-2.3926 10.107,6.7237 2.3926,11.901 z"
         style="paint-order:fill markers stroke"
         id="path34" />
      <path
         d="m 28.697,42.002 a 0.58465,0.60804 0 0 0 -0.58446,0.60823 0.58465,0.60804 0 0 0 0.58446,0.60823 0.58465,0.60804 0 0 0 0.22479,-0.04754 l 1.4258,1.6304 0.30127,-0.26303 -1.4361,-1.6423 a 0.58465,0.60804 0 0 0 0.06925,-0.28577 0.58465,0.60804 0 0 0 -0.58498,-0.60823 z"
         style="paint-order:fill markers stroke"
         id="path36" />
      <path
         d="m 38.285,52.685 a 0.58465,0.60804 0 0 0 0.58446,-0.60823 0.58465,0.60804 0 0 0 -0.58446,-0.60823 0.58465,0.60804 0 0 0 -0.22479,0.04754 l -1.4258,-1.6304 -0.30127,0.26303 1.4361,1.6423 a 0.58465,0.60804 0 0 0 -0.06925,0.28577 0.58465,0.60804 0 0 0 0.58498,0.60823 z"
         style="paint-order:fill markers stroke"
         id="path38" />
      <path
         d="m 28.344,42.23 c 2.261,2.2156 2.2668,2.2214 2.2668,2.2214"
         style="paint-order:fill markers stroke"
         id="path40" />
      <path
         d="m 38.946,42.604 a 0.58465,0.60804 82.663 0 0 -0.67789,-0.502 0.58465,0.60804 82.663 0 0 -0.52861,0.65735 0.58465,0.60804 82.663 0 0 0.07586,0.21688 l -1.435,1.6223 0.29936,0.26521 1.4454,-1.6341 a 0.58465,0.60804 82.663 0 0 0.29228,0.03214 0.58465,0.60804 82.663 0 0 0.52854,-0.65786 z"
         style="paint-order:fill markers stroke"
         id="path42" />
      <path
         d="m 28.127,52.162 a 0.58465,0.60804 86.164 0 0 0.64597,0.54246 0.58465,0.60804 86.164 0 0 0.56777,-0.62384 0.58465,0.60804 86.164 0 0 -0.06247,-0.22111 l 1.5314,-1.5316 -0.2826,-0.283 -1.5425,1.5427 A 0.58465,0.60804 86.164 0 0 28.69481,51.53764 0.58465,0.60804 86.164 0 0 28.12708,52.162 Z"
         style="paint-order:fill markers stroke"
         id="path44" />
    </g>
    <rect
       x="30.218"
       y="44.066"
       width="1.9678"
       height="2.0671"
       fill="#fff"
       style="paint-order:fill markers stroke"
       id="rect48" />
  </g>
</svg>
